<svg width="108" height="19" viewBox="0 0 108 19" fill="none" xmlns="http://www.w3.org/2000/svg">
<path d="M8.45595 18.2158C6.79195 18.2158 5.33595 17.8638 4.08795 17.1598C2.83995 16.4558 1.87995 15.4478 1.20795 14.1358C0.535951 12.8238 0.199951 11.2878 0.199951 9.52777C0.199951 7.76777 0.535951 6.23977 1.20795 4.94377C1.87995 3.63177 2.83995 2.62377 4.08795 1.91977C5.33595 1.21577 6.79195 0.86377 8.45595 0.86377C10.552 0.86377 12.36 1.43977 13.88 2.59177C14.12 2.78377 14.288 2.97577 14.384 3.16777C14.48 3.35977 14.528 3.59977 14.528 3.88777C14.528 4.30377 14.408 4.66377 14.168 4.96777C13.944 5.25577 13.664 5.39977 13.328 5.39977C13.104 5.39977 12.904 5.37577 12.728 5.32777C12.568 5.26377 12.384 5.15977 12.176 5.01577C11.536 4.59977 10.944 4.30377 10.4 4.12777C9.85595 3.93577 9.27195 3.83977 8.64795 3.83977C7.11195 3.83977 5.95195 4.31977 5.16795 5.27977C4.39995 6.22377 4.01595 7.63977 4.01595 9.52777C4.01595 13.3358 5.55995 15.2398 8.64795 15.2398C9.23995 15.2398 9.79995 15.1518 10.328 14.9758C10.856 14.7838 11.472 14.4798 12.176 14.0638C12.416 13.9198 12.616 13.8238 12.776 13.7758C12.936 13.7118 13.12 13.6798 13.328 13.6798C13.664 13.6798 13.944 13.8318 14.168 14.1358C14.408 14.4238 14.528 14.7758 14.528 15.1918C14.528 15.4798 14.472 15.7278 14.36 15.9358C14.264 16.1278 14.104 16.3118 13.88 16.4878C12.36 17.6398 10.552 18.2158 8.45595 18.2158Z" fill="#1E1638"/>
<path d="M22.0872 18.1918C20.8392 18.1918 19.7432 17.9438 18.7992 17.4478C17.8552 16.9358 17.1272 16.2238 16.6152 15.3118C16.1032 14.3838 15.8472 13.2958 15.8472 12.0478C15.8472 10.7998 16.1032 9.71977 16.6152 8.80777C17.1272 7.87977 17.8552 7.16777 18.7992 6.67177C19.7432 6.17577 20.8392 5.92777 22.0872 5.92777C23.3352 5.92777 24.4312 6.17577 25.3752 6.67177C26.3192 7.16777 27.0472 7.87977 27.5592 8.80777C28.0712 9.71977 28.3272 10.7998 28.3272 12.0478C28.3272 13.2958 28.0712 14.3838 27.5592 15.3118C27.0472 16.2238 26.3192 16.9358 25.3752 17.4478C24.4312 17.9438 23.3352 18.1918 22.0872 18.1918ZM22.0872 15.4318C23.8472 15.4318 24.7272 14.3038 24.7272 12.0478C24.7272 10.9118 24.4952 10.0638 24.0312 9.50377C23.5832 8.94377 22.9352 8.66377 22.0872 8.66377C20.3272 8.66377 19.4472 9.79177 19.4472 12.0478C19.4472 14.3038 20.3272 15.4318 22.0872 15.4318Z" fill="#1E1638"/>
<path d="M37.9246 5.92777C39.3326 5.92777 40.3806 6.34377 41.0686 7.17577C41.7566 7.99177 42.1006 9.23177 42.1006 10.8958V16.4398C42.1006 16.9678 41.9326 17.3838 41.5966 17.6878C41.2766 17.9918 40.8366 18.1438 40.2766 18.1438C39.7166 18.1438 39.2766 17.9918 38.9566 17.6878C38.6366 17.3838 38.4766 16.9678 38.4766 16.4398V11.0638C38.4766 10.2638 38.3246 9.67977 38.0206 9.31177C37.7326 8.94377 37.2766 8.75977 36.6526 8.75977C35.9006 8.75977 35.2926 8.99977 34.8286 9.47977C34.3806 9.95977 34.1566 10.5998 34.1566 11.3998V16.4398C34.1566 16.9678 33.9966 17.3838 33.6766 17.6878C33.3566 17.9918 32.9166 18.1438 32.3566 18.1438C31.7966 18.1438 31.3486 17.9918 31.0126 17.6878C30.6926 17.3838 30.5326 16.9678 30.5326 16.4398V7.63177C30.5326 7.13577 30.7006 6.73577 31.0366 6.43177C31.3886 6.12777 31.8366 5.97577 32.3806 5.97577C32.8766 5.97577 33.2766 6.12777 33.5806 6.43177C33.9006 6.71977 34.0606 7.09577 34.0606 7.55977V7.89577C34.4766 7.25577 35.0126 6.76777 35.6686 6.43177C36.3406 6.09577 37.0926 5.92777 37.9246 5.92777Z" fill="#1E1638"/>
<path d="M51.358 15.5038C51.838 15.5358 52.19 15.6558 52.414 15.8638C52.638 16.0718 52.75 16.3758 52.75 16.7758C52.75 17.2398 52.566 17.5918 52.198 17.8318C51.83 18.0718 51.302 18.1678 50.614 18.1198L49.942 18.0718C47.142 17.8478 45.742 16.3838 45.742 13.6798V8.92777H44.782C44.254 8.92777 43.854 8.81577 43.582 8.59177C43.31 8.35177 43.174 8.01577 43.174 7.58377C43.174 7.13577 43.31 6.79977 43.582 6.57577C43.854 6.33577 44.254 6.21577 44.782 6.21577H45.742V4.34377C45.742 3.81577 45.902 3.39977 46.222 3.09577C46.558 2.79177 47.006 2.63977 47.566 2.63977C48.126 2.63977 48.566 2.79177 48.886 3.09577C49.206 3.39977 49.366 3.81577 49.366 4.34377V6.21577H51.046C52.134 6.21577 52.678 6.67177 52.678 7.58377C52.678 8.01577 52.542 8.35177 52.27 8.59177C51.998 8.81577 51.59 8.92777 51.046 8.92777H49.366V13.9438C49.366 14.4238 49.478 14.7918 49.702 15.0478C49.926 15.2878 50.254 15.4238 50.686 15.4558L51.358 15.5038Z" fill="#1E1638"/>
<path d="M63.5433 14.4958C63.8633 14.4958 64.1193 14.6238 64.3113 14.8798C64.5193 15.1358 64.6233 15.4638 64.6233 15.8638C64.6233 16.1358 64.5433 16.3918 64.3833 16.6318C64.2233 16.8558 63.9993 17.0478 63.7113 17.2078C63.1673 17.4958 62.5353 17.7358 61.8153 17.9278C61.0953 18.1038 60.4313 18.1918 59.8233 18.1918C58.5433 18.1918 57.4233 17.9438 56.4633 17.4478C55.5193 16.9518 54.7913 16.2478 54.2793 15.3358C53.7673 14.4078 53.5113 13.3198 53.5113 12.0718C53.5113 10.8718 53.7593 9.80777 54.2553 8.87977C54.7513 7.95177 55.4393 7.23177 56.3193 6.71977C57.1993 6.19177 58.1993 5.92777 59.3193 5.92777C60.3913 5.92777 61.3273 6.16777 62.1273 6.64777C62.9433 7.11177 63.5753 7.78377 64.0233 8.66377C64.4713 9.52777 64.6953 10.5438 64.6953 11.7118C64.6953 12.0638 64.6073 12.3358 64.4313 12.5278C64.2713 12.7038 64.0393 12.7918 63.7353 12.7918H57.0153C57.1273 13.7358 57.4153 14.4238 57.8793 14.8558C58.3433 15.2718 59.0073 15.4798 59.8713 15.4798C60.3353 15.4798 60.7513 15.4238 61.1193 15.3118C61.4873 15.1998 61.8953 15.0478 62.3433 14.8558C62.5673 14.7598 62.7833 14.6798 62.9913 14.6158C63.1993 14.5358 63.3833 14.4958 63.5433 14.4958ZM59.4153 8.42377C58.7273 8.42377 58.1753 8.64777 57.7593 9.09577C57.3433 9.52777 57.0953 10.1598 57.0153 10.9918H61.6473C61.5993 10.1438 61.3833 9.50377 60.9993 9.07177C60.6313 8.63977 60.1033 8.42377 59.4153 8.42377Z" fill="#1E1638"/>
<path d="M74.2761 5.92777C75.6841 5.92777 76.7321 6.34377 77.4201 7.17577C78.1081 7.99177 78.4521 9.23177 78.4521 10.8958V16.4398C78.4521 16.9678 78.2841 17.3838 77.9481 17.6878C77.6281 17.9918 77.1881 18.1438 76.6281 18.1438C76.0681 18.1438 75.6281 17.9918 75.3081 17.6878C74.9881 17.3838 74.8281 16.9678 74.8281 16.4398V11.0638C74.8281 10.2638 74.6761 9.67977 74.3721 9.31177C74.0841 8.94377 73.6281 8.75977 73.0041 8.75977C72.2521 8.75977 71.6441 8.99977 71.1801 9.47977C70.7321 9.95977 70.5081 10.5998 70.5081 11.3998V16.4398C70.5081 16.9678 70.3481 17.3838 70.0281 17.6878C69.7081 17.9918 69.2681 18.1438 68.7081 18.1438C68.1481 18.1438 67.7001 17.9918 67.3641 17.6878C67.0441 17.3838 66.8841 16.9678 66.8841 16.4398V7.63177C66.8841 7.13577 67.0521 6.73577 67.3881 6.43177C67.7401 6.12777 68.1881 5.97577 68.7321 5.97577C69.2281 5.97577 69.6281 6.12777 69.9321 6.43177C70.2521 6.71977 70.4121 7.09577 70.4121 7.55977V7.89577C70.8281 7.25577 71.3641 6.76777 72.0201 6.43177C72.6921 6.09577 73.4441 5.92777 74.2761 5.92777Z" fill="#1E1638"/>
<path d="M87.7096 15.5038C88.1896 15.5358 88.5416 15.6558 88.7656 15.8638C88.9896 16.0718 89.1016 16.3758 89.1016 16.7758C89.1016 17.2398 88.9176 17.5918 88.5496 17.8318C88.1816 18.0718 87.6536 18.1678 86.9656 18.1198L86.2936 18.0718C83.4936 17.8478 82.0936 16.3838 82.0936 13.6798V8.92777H81.1336C80.6056 8.92777 80.2056 8.81577 79.9336 8.59177C79.6616 8.35177 79.5256 8.01577 79.5256 7.58377C79.5256 7.13577 79.6616 6.79977 79.9336 6.57577C80.2056 6.33577 80.6056 6.21577 81.1336 6.21577H82.0936V4.34377C82.0936 3.81577 82.2536 3.39977 82.5736 3.09577C82.9096 2.79177 83.3576 2.63977 83.9176 2.63977C84.4776 2.63977 84.9176 2.79177 85.2376 3.09577C85.5576 3.39977 85.7176 3.81577 85.7176 4.34377V6.21577H87.3976C88.4856 6.21577 89.0296 6.67177 89.0296 7.58377C89.0296 8.01577 88.8936 8.35177 88.6216 8.59177C88.3496 8.81577 87.9416 8.92777 87.3976 8.92777H85.7176V13.9438C85.7176 14.4238 85.8296 14.7918 86.0536 15.0478C86.2776 15.2878 86.6056 15.4238 87.0376 15.4558L87.7096 15.5038Z" fill="#1E1638"/>
<path d="M92.7528 18.1438C92.1608 18.1438 91.6728 17.9518 91.2888 17.5678C90.9048 17.1678 90.7128 16.6718 90.7128 16.0798C90.7128 15.4878 90.9048 14.9998 91.2888 14.6158C91.6728 14.2158 92.1608 14.0158 92.7528 14.0158C93.3448 14.0158 93.8328 14.2158 94.2168 14.6158C94.6008 14.9998 94.7928 15.4878 94.7928 16.0798C94.7928 16.6718 94.6008 17.1678 94.2168 17.5678C93.8328 17.9518 93.3448 18.1438 92.7528 18.1438Z" fill="#1E1638"/>
<path d="M98.9871 18.1438C98.3951 18.1438 97.9071 17.9518 97.5231 17.5678C97.1391 17.1678 96.9471 16.6718 96.9471 16.0798C96.9471 15.4878 97.1391 14.9998 97.5231 14.6158C97.9071 14.2158 98.3951 14.0158 98.9871 14.0158C99.5791 14.0158 100.067 14.2158 100.451 14.6158C100.835 14.9998 101.027 15.4878 101.027 16.0798C101.027 16.6718 100.835 17.1678 100.451 17.5678C100.067 17.9518 99.5791 18.1438 98.9871 18.1438Z" fill="#1E1638"/>
<path d="M105.222 18.1438C104.63 18.1438 104.142 17.9518 103.758 17.5678C103.374 17.1678 103.182 16.6718 103.182 16.0798C103.182 15.4878 103.374 14.9998 103.758 14.6158C104.142 14.2158 104.63 14.0158 105.222 14.0158C105.814 14.0158 106.302 14.2158 106.686 14.6158C107.07 14.9998 107.262 15.4878 107.262 16.0798C107.262 16.6718 107.07 17.1678 106.686 17.5678C106.302 17.9518 105.814 18.1438 105.222 18.1438Z" fill="#1E1638"/>
</svg>
