<svg width="129" height="83" viewBox="0 0 129 83" fill="none" xmlns="http://www.w3.org/2000/svg">
<rect x="0.189453" width="128" height="70" fill="white"/>
<path d="M7.18945 76.3077C8.68323 74.4103 13.0152 70.6154 18.3928 70.6154C25.1148 70.6154 22.426 82 29.148 82C35.87 82 32.2849 37.8846 39.9031 37.8846C47.5214 37.8846 41.6957 53.5385 50.6583 53.5385C59.621 53.5385 52.899 70.6154 61.4135 70.6154C69.928 70.6154 64.1023 37.8846 72.1687 37.8846C80.2351 37.8846 73.9612 8 82.9239 8C91.8865 8 84.2683 30.7692 93.6791 30.7692C103.09 30.7692 94.5753 67.0577 104.434 67.0577C114.293 67.0577 109.364 53.5385 115.189 53.5385" stroke="#7A52F8" stroke-width="2"/>
</svg>
