<svg width="52" height="17" viewBox="0 0 52 17" fill="none" xmlns="http://www.w3.org/2000/svg">
<path d="M20.3935 4.96443L17.2015 12.4404H15.4975L18.7135 5.15643H14.6095V3.71643H20.3935V4.96443ZM23.8277 10.6764L22.4237 14.0484H21.3437L22.1237 10.6764H23.8277ZM25.2465 7.95243C25.2465 6.56843 25.4945 5.48443 25.9905 4.70043C26.4945 3.91643 27.3265 3.52443 28.4865 3.52443C29.6465 3.52443 30.4745 3.91643 30.9705 4.70043C31.4745 5.48443 31.7265 6.56843 31.7265 7.95243C31.7265 9.34443 31.4745 10.4364 30.9705 11.2284C30.4745 12.0204 29.6465 12.4164 28.4865 12.4164C27.3265 12.4164 26.4945 12.0204 25.9905 11.2284C25.4945 10.4364 25.2465 9.34443 25.2465 7.95243ZM30.0705 7.95243C30.0705 7.36043 30.0305 6.86443 29.9505 6.46443C29.8785 6.05643 29.7265 5.72443 29.4945 5.46843C29.2705 5.21243 28.9345 5.08443 28.4865 5.08443C28.0385 5.08443 27.6985 5.21243 27.4665 5.46843C27.2425 5.72443 27.0905 6.05643 27.0105 6.46443C26.9385 6.86443 26.9025 7.36043 26.9025 7.95243C26.9025 8.56043 26.9385 9.07243 27.0105 9.48843C27.0825 9.89643 27.2345 10.2284 27.4665 10.4844C27.6985 10.7324 28.0385 10.8564 28.4865 10.8564C28.9345 10.8564 29.2745 10.7324 29.5065 10.4844C29.7385 10.2284 29.8905 9.89643 29.9625 9.48843C30.0345 9.07243 30.0705 8.56043 30.0705 7.95243ZM33.4044 7.95243C33.4044 6.56843 33.6524 5.48443 34.1484 4.70043C34.6524 3.91643 35.4844 3.52443 36.6444 3.52443C37.8044 3.52443 38.6324 3.91643 39.1284 4.70043C39.6324 5.48443 39.8844 6.56843 39.8844 7.95243C39.8844 9.34443 39.6324 10.4364 39.1284 11.2284C38.6324 12.0204 37.8044 12.4164 36.6444 12.4164C35.4844 12.4164 34.6524 12.0204 34.1484 11.2284C33.6524 10.4364 33.4044 9.34443 33.4044 7.95243ZM38.2284 7.95243C38.2284 7.36043 38.1884 6.86443 38.1084 6.46443C38.0364 6.05643 37.8844 5.72443 37.6524 5.46843C37.4284 5.21243 37.0924 5.08443 36.6444 5.08443C36.1964 5.08443 35.8564 5.21243 35.6244 5.46843C35.4004 5.72443 35.2484 6.05643 35.1684 6.46443C35.0964 6.86443 35.0604 7.36043 35.0604 7.95243C35.0604 8.56043 35.0964 9.07243 35.1684 9.48843C35.2404 9.89643 35.3924 10.2284 35.6244 10.4844C35.8564 10.7324 36.1964 10.8564 36.6444 10.8564C37.0924 10.8564 37.4324 10.7324 37.6644 10.4844C37.8964 10.2284 38.0484 9.89643 38.1204 9.48843C38.1924 9.07243 38.2284 8.56043 38.2284 7.95243ZM41.3702 5.84043C41.3702 5.23243 41.5462 4.75643 41.8982 4.41243C42.2582 4.06843 42.7182 3.89643 43.2782 3.89643C43.8382 3.89643 44.2942 4.06843 44.6462 4.41243C45.0062 4.75643 45.1862 5.23243 45.1862 5.84043C45.1862 6.45643 45.0062 6.93643 44.6462 7.28043C44.2942 7.62443 43.8382 7.79643 43.2782 7.79643C42.7182 7.79643 42.2582 7.62443 41.8982 7.28043C41.5462 6.93643 41.3702 6.45643 41.3702 5.84043ZM49.0742 4.04043L44.3582 12.4404H42.7262L47.4302 4.04043H49.0742ZM43.2662 4.90443C42.8262 4.90443 42.6062 5.21643 42.6062 5.84043C42.6062 6.47243 42.8262 6.78843 43.2662 6.78843C43.4822 6.78843 43.6502 6.71243 43.7702 6.56043C43.8902 6.40043 43.9502 6.16043 43.9502 5.84043C43.9502 5.21643 43.7222 4.90443 43.2662 4.90443ZM46.6382 10.6284C46.6382 10.0124 46.8142 9.53643 47.1662 9.20043C47.5262 8.85643 47.9862 8.68443 48.5462 8.68443C49.1062 8.68443 49.5582 8.85643 49.9022 9.20043C50.2542 9.53643 50.4302 10.0124 50.4302 10.6284C50.4302 11.2444 50.2542 11.7244 49.9022 12.0684C49.5582 12.4124 49.1062 12.5844 48.5462 12.5844C47.9782 12.5844 47.5182 12.4124 47.1662 12.0684C46.8142 11.7244 46.6382 11.2444 46.6382 10.6284ZM48.5342 9.69243C48.0782 9.69243 47.8502 10.0044 47.8502 10.6284C47.8502 11.2604 48.0782 11.5764 48.5342 11.5764C48.9822 11.5764 49.2062 11.2604 49.2062 10.6284C49.2062 10.0044 48.9822 9.69243 48.5342 9.69243Z" fill="#4AAF05"/>
<path d="M3.18945 11.1068V5.77344" stroke="#4AAF05" stroke-width="2" stroke-linecap="round" stroke-linejoin="round"/>
<path d="M1.18945 7.77344L3.18945 5.77344L5.18945 7.77344" stroke="#4AAF05" stroke-width="2" stroke-linecap="round" stroke-linejoin="round"/>
</svg>
